<svg xmlns="http://www.w3.org/2000/svg" width="2560" height="510" viewBox="0 0 2560 510" version="1.1"><path d="M 411.789 55.045 C 396.719 56.801, 379.077 65.886, 366.700 78.263 C 347.244 97.719, 341.017 117.258, 341.006 158.884 C 341 181.963, 341.607 185.907, 345.974 191.138 C 348.327 193.957, 349.381 194.400, 354.624 194.779 C 359.941 195.164, 360.936 194.925, 363.700 192.599 C 368.492 188.567, 369.274 183.427, 368.537 160.818 C 367.641 133.338, 370.037 120.477, 378.442 107.647 C 386.089 95.976, 395.407 88.738, 408.965 83.936 C 416.680 81.203, 432.796 81.236, 441.003 84.001 C 450.037 87.044, 461.521 94.263, 466 99.714 C 472.937 108.157, 479.501 120.977, 480.483 128 C 480.828 130.475, 481.424 144.875, 481.806 160 C 482.275 178.576, 482.894 188.188, 483.715 189.620 C 485.293 192.371, 490.905 195.004, 495.151 194.985 C 499.700 194.965, 503 193.124, 505.720 189.088 C 507.959 185.765, 508 185.200, 507.999 157.602 C 507.997 121.598, 507.123 116.042, 498.888 99.679 C 494.752 91.462, 489.405 84.548, 481.223 76.841 C 462.374 59.083, 439.296 51.839, 411.789 55.045 M 288.655 166.459 C 284.523 167.932, 281.033 170.784, 277.743 175.378 C 275.196 178.934, 273.274 190.020, 272.089 208 C 271.241 220.864, 269.766 236.489, 266.471 267.500 C 265.653 275.200, 264.986 284.650, 264.988 288.500 C 264.990 292.350, 264.327 299.550, 263.514 304.500 C 262.700 309.450, 262.027 317.130, 262.017 321.566 C 262.008 326.003, 261.558 332.078, 261.018 335.066 C 260.478 338.055, 259.336 349.264, 258.480 359.975 C 257.625 370.686, 256.709 380.361, 256.444 381.475 C 256.179 382.589, 255.529 390.250, 255 398.500 C 254.471 406.750, 253.578 417.100, 253.015 421.500 C 252.452 425.900, 251.907 435.125, 251.805 442 C 251.654 452.102, 251.964 455.317, 253.421 458.758 C 255.867 464.536, 263.716 471.439, 269.495 472.894 C 276.214 474.586, 570.520 474.524, 576.176 472.829 C 578.391 472.165, 582.407 469.641, 585.101 467.219 C 589.220 463.516, 590.337 461.700, 592.130 455.799 C 594.122 449.238, 594.187 448.023, 593.114 437.141 C 592.483 430.738, 591.533 417.789, 591.003 408.365 C 590.472 398.941, 589.615 390.117, 589.097 388.756 C 588.465 387.092, 587.108 386.072, 584.953 385.641 C 580.878 384.826, 530.696 384.796, 528.582 385.607 C 527.391 386.064, 526.979 387.732, 526.916 392.357 C 526.742 404.970, 525.644 409.817, 522.174 413.288 L 518.962 416.500 416.231 416.766 C 340.665 416.961, 312.766 416.728, 310.724 415.884 C 307.423 414.519, 304.492 410.649, 303.615 406.500 C 302.894 403.090, 305.724 365.469, 309.525 327.928 C 310.336 319.914, 311.003 310.464, 311.006 306.928 C 311.009 303.393, 311.489 297.800, 312.072 294.500 C 312.656 291.200, 313.514 281.975, 313.980 274 C 315.582 246.554, 317.607 238.806, 324.047 235.476 C 328.312 233.270, 516.652 233.251, 520.915 235.456 C 526.284 238.232, 527 241.629, 527 264.319 C 527 275.604, 527.273 285.548, 527.607 286.418 C 528.492 288.724, 546.497 288.754, 547.380 286.451 C 547.707 285.599, 548.442 277.611, 549.012 268.701 C 549.583 259.790, 550.504 248.900, 551.059 244.500 C 551.960 237.350, 552.405 236.208, 555.246 233.750 C 558.220 231.177, 559.021 231, 567.677 231 C 575.499 231, 577.061 230.729, 577.778 229.250 C 578.244 228.287, 578.283 221.875, 577.863 215 C 575.646 178.697, 575.197 176.367, 569.339 170.803 C 563.914 165.650, 560.700 164.999, 540.782 165.015 C 530.727 165.024, 521.858 165.437, 521.073 165.933 C 520.018 166.602, 519.542 169.782, 519.245 178.168 C 518.894 188.057, 518.509 190.114, 516.223 194.324 C 513.071 200.124, 508.177 204.192, 501.715 206.380 C 495.484 208.490, 493.208 208.424, 486.580 205.944 C 479.723 203.379, 472.797 196.110, 471.200 189.803 C 470.601 187.436, 469.837 181.237, 469.502 176.026 C 469.140 170.384, 468.410 166.245, 467.697 165.792 C 465.809 164.592, 384.199 164.823, 381.934 166.035 C 380.232 166.946, 380 168.201, 380 176.498 C 380 192.489, 374.963 201.999, 364.402 205.951 C 357.864 208.397, 353.889 208.522, 347.872 206.472 C 342.033 204.482, 336.659 199.980, 333.318 194.279 C 330.954 190.245, 330.586 188.395, 330.200 178.603 C 329.959 172.496, 329.311 166.938, 328.759 166.250 C 327.290 164.420, 293.884 164.594, 288.655 166.459 M 930.087 211.089 C 893.085 213.803, 866.878 227.122, 851.372 251.092 C 830.247 283.748, 829.487 342.087, 849.731 377 C 855.311 386.624, 869.636 400.499, 879.500 405.834 C 900.185 417.023, 927.822 421.787, 956.623 419.128 C 994.115 415.667, 1021.666 399.335, 1035.056 372.634 C 1037.225 368.308, 1038.998 364.258, 1038.996 363.634 C 1038.993 362.775, 1009.341 349.859, 988.850 341.792 C 987.439 341.236, 986.285 342.238, 983.493 346.445 C 972.699 362.707, 956.258 369.378, 935.673 365.848 C 924.701 363.966, 918.621 361.263, 912.028 355.335 C 901.913 346.241, 897.397 331.707, 898.293 311.125 C 899.057 293.565, 902.215 284.650, 910.853 275.669 C 918.876 267.329, 927.772 264.031, 942.303 264.012 C 962.658 263.984, 977.059 271.422, 984.389 285.750 C 985.303 287.538, 986.609 289, 987.291 289 C 987.972 289, 996.550 285.622, 1006.353 281.492 C 1016.156 277.363, 1027.511 272.596, 1031.588 270.899 C 1036.632 268.799, 1039 267.277, 1039 266.136 C 1039 262.047, 1029.476 248.250, 1020.613 239.500 C 998.499 217.667, 968.547 208.267, 930.087 211.089 M 1803 210.685 C 1758.304 214.018, 1729.251 232.960, 1715.861 267.500 C 1710.223 282.041, 1708.639 292.141, 1708.565 314 C 1708.496 334.787, 1709.327 341.653, 1713.648 355.983 C 1723.867 389.868, 1748.393 410.407, 1787.321 417.677 C 1800.221 420.087, 1831.854 420.065, 1845 417.638 C 1854.977 415.796, 1869.731 411.160, 1876.500 407.739 C 1904.670 393.507, 1921.544 364.769, 1923.792 327.200 C 1926.269 285.785, 1917.519 257.163, 1895.976 236.214 C 1876.657 217.426, 1841.618 207.805, 1803 210.685 M 706.835 212.476 C 688.303 215.508, 675.521 221.481, 666.166 231.482 C 655.605 242.771, 650.843 256.668, 650.740 276.500 C 650.671 289.544, 651.789 295.798, 655.511 303.209 C 659.007 310.170, 662.711 314.530, 669.500 319.677 C 684.101 330.749, 703.431 337.383, 743.248 344.988 C 749.159 346.117, 755.091 347.540, 756.430 348.150 C 762.039 350.706, 762.182 360.321, 756.672 364.404 C 754.062 366.338, 752.593 366.494, 737.672 366.420 C 725.124 366.359, 719.371 365.868, 712 364.234 C 700.005 361.573, 688.801 357.892, 679.210 353.461 C 675.090 351.558, 671.214 350, 670.598 350 C 669.982 350, 664.599 359.770, 658.636 371.712 L 647.794 393.424 650.647 395.768 C 654.910 399.270, 674.389 408.548, 683.500 411.415 C 712.879 420.661, 750.201 422.436, 777 415.863 C 807.927 408.277, 822.913 387.915, 823.265 353 C 823.402 339.430, 821.746 330.655, 817.810 324.082 C 806.395 305.021, 786.425 295.454, 741.500 287.525 C 721.377 283.973, 718.527 283.190, 716.022 280.524 C 714.327 278.720, 713.945 277.248, 714.190 273.473 C 714.662 266.199, 717.418 264.594, 730.191 264.153 C 746.792 263.579, 765.948 267.278, 784.208 274.583 C 789.053 276.522, 793.430 277.852, 793.936 277.540 C 794.441 277.227, 800.131 267.469, 806.580 255.855 L 818.306 234.739 815.903 232.896 C 808.286 227.054, 783.596 217.453, 767.159 213.940 C 754.310 211.194, 719.790 210.356, 706.835 212.476 M 1060.496 214.158 C 1060.215 214.896, 1060.101 260.725, 1060.242 316 L 1060.500 416.500 1091.500 416.500 L 1122.500 416.500 1122.765 386.250 L 1123.029 356 1131.765 356.022 L 1140.500 356.045 1156.500 386.272 L 1172.500 416.500 1205.436 416.764 C 1223.551 416.909, 1238.741 416.659, 1239.192 416.208 C 1239.858 415.542, 1222.403 384.056, 1203.820 352.400 L 1200.238 346.300 1205.720 343.611 C 1212.725 340.176, 1220.890 332.456, 1224.464 325.890 C 1233.583 309.135, 1235.287 279.771, 1228.412 257.849 C 1221.095 234.517, 1204.564 220.721, 1177 214.942 C 1173.415 214.190, 1152.264 213.619, 1116.254 213.302 C 1070.613 212.900, 1060.919 213.048, 1060.496 214.158 M 1261.667 213.667 C 1261.300 214.033, 1261 259.933, 1261 315.667 L 1261 417 1292 417 L 1323 417 1323 315 L 1323 213 1292.667 213 C 1275.983 213, 1262.033 213.300, 1261.667 213.667 M 1361.461 214.250 C 1361.199 214.938, 1361.101 260.725, 1361.242 316 L 1361.500 416.500 1392.750 416.764 L 1424 417.028 1424 389.514 L 1424 362 1442.250 361.997 C 1471.234 361.993, 1486.644 359.381, 1501.883 351.892 C 1525.769 340.152, 1536.635 315.404, 1533.956 278.848 C 1531.467 244.886, 1515.807 224.383, 1486.752 217.041 C 1474.117 213.848, 1458.109 213.021, 1408.719 213.010 C 1372.207 213.002, 1361.833 213.274, 1361.461 214.250 M 1536.104 214.375 C 1535.303 215.340, 1535.043 222.852, 1535.232 239.625 L 1535.500 263.500 1561.750 263.767 L 1588 264.033 1588 340.517 L 1588 417 1618.893 417 C 1646.141 417, 1649.858 416.813, 1650.393 415.418 C 1650.727 414.548, 1651 380.123, 1651 338.918 L 1651 264 1676.500 264 L 1702 264 1702 238.500 L 1702 213 1619.622 213 C 1550.957 213, 1537.055 213.229, 1536.104 214.375 M 1946.496 214.158 C 1946.215 214.896, 1946.101 260.725, 1946.242 316 L 1946.500 416.500 1977.500 416.500 L 2008.500 416.500 2008.765 386.250 L 2009.029 356 2017.845 356 L 2026.660 356 2042.754 386.250 L 2058.847 416.500 2092.424 416.763 C 2112.814 416.923, 2126 416.659, 2126 416.090 C 2126 415.575, 2117.395 400.161, 2106.877 381.838 C 2096.359 363.515, 2087.548 347.987, 2087.297 347.331 C 2087.037 346.653, 2089.243 344.963, 2092.425 343.405 C 2099.712 339.837, 2108.247 330.834, 2112.053 322.700 C 2119.999 305.719, 2120.978 277.441, 2114.324 257.058 C 2106.878 234.249, 2090.334 220.673, 2063 214.942 C 2059.415 214.190, 2038.264 213.619, 2002.254 213.302 C 1956.613 212.900, 1946.919 213.048, 1946.496 214.158 M 2105.579 213.872 C 2105.274 214.365, 2113.401 228.433, 2123.638 245.135 C 2133.875 261.836, 2150.964 289.751, 2161.613 307.170 L 2180.976 338.840 2181.238 377.670 L 2181.500 416.500 2213 416.500 L 2244.500 416.500 2245 377 L 2245.500 337.500 2283.399 277.039 C 2304.243 243.786, 2321.509 215.768, 2321.769 214.777 C 2322.217 213.062, 2320.507 212.987, 2286.401 213.237 L 2250.561 213.500 2245.934 222 C 2243.390 226.675, 2235.012 242.310, 2227.318 256.744 L 2213.328 282.988 2194.290 248.244 L 2175.252 213.500 2140.693 213.237 C 2121.047 213.088, 2105.895 213.361, 2105.579 213.872 M 572.315 254.007 C 568.585 255.510, 568 258.197, 568 273.823 C 568 292.821, 567.890 292.646, 581.042 294.635 C 586.244 295.421, 593.558 296.132, 597.296 296.214 C 603.446 296.349, 604.348 296.107, 606.796 293.662 C 609.462 290.998, 609.505 290.746, 609.824 275.865 C 610.205 258.096, 609.534 255.521, 604.135 254.021 C 599.712 252.792, 575.357 252.782, 572.315 254.007 M 1809.500 263.626 C 1808.400 263.842, 1805.025 264.511, 1802 265.112 C 1786.809 268.129, 1775.334 280.923, 1772.092 298.458 C 1769.145 314.400, 1771.680 336.548, 1777.638 346.914 C 1787.081 363.345, 1806.619 369.958, 1830.500 364.807 C 1837.601 363.275, 1842.575 360.520, 1847.958 355.137 C 1856.755 346.340, 1860.965 333.348, 1860.965 315 C 1860.965 290.508, 1853.129 274.527, 1837.644 267.437 C 1830.422 264.131, 1816.505 262.246, 1809.500 263.626 M 1123 284.914 L 1123 306 1139.250 305.924 C 1159.607 305.829, 1163.346 304.606, 1168.151 296.475 C 1170.030 293.296, 1170.492 291.098, 1170.462 285.498 C 1170.410 276.050, 1167.493 270.632, 1160.532 267.054 C 1155.910 264.678, 1154.425 264.477, 1139.282 264.164 L 1123 263.828 1123 284.914 M 1424 288.502 L 1424 313.272 1438.750 312.714 C 1459.822 311.918, 1465.380 309.806, 1469.337 301.092 C 1472.217 294.750, 1472.164 282.189, 1469.234 276.489 C 1466.662 271.486, 1462.528 267.637, 1458 266.029 C 1456.075 265.346, 1447.638 264.550, 1439.250 264.260 L 1424 263.732 1424 288.502 M 2009 284.899 L 2009 306 2024.851 306 C 2041.146 306, 2045.164 305.322, 2050.367 301.696 C 2056.288 297.569, 2058.755 285.667, 2055.551 276.684 C 2053.832 271.864, 2051.551 269.342, 2046.500 266.676 C 2042.999 264.829, 2040.409 264.518, 2025.750 264.182 L 2009 263.798 2009 284.899 M 492.786 307.553 C 488.391 309.938, 487.705 314.315, 488.226 336.620 C 488.487 347.794, 489.179 357.686, 489.805 359.209 C 490.435 360.741, 492.658 362.805, 494.920 363.959 C 498.534 365.803, 500.766 366, 518.026 366 C 529.217 366, 537.928 365.573, 539.055 364.970 C 543.434 362.627, 544 359.366, 544 336.500 C 544 305.030, 544.896 305.980, 515.300 306.040 C 499.816 306.071, 494.909 306.401, 492.786 307.553 M 576.250 339.624 C 575.328 340.024, 575 344.201, 575 355.560 L 575 370.954 577.706 372.727 C 579.907 374.169, 582.595 374.500, 592.101 374.500 C 608.268 374.500, 608 374.787, 608 357.456 C 608 339.141, 608.402 339.566, 590.841 339.291 C 583.503 339.175, 576.938 339.325, 576.250 339.624" stroke="none" fill="#080404" fill-rule="evenodd"/></svg>